<svg width="24" height="24" viewBox="0 0 24 24" fill="none" xmlns="http://www.w3.org/2000/svg">
<path d="M15.4697 8.46967C15.7626 8.76256 15.7626 9.23744 15.4697 9.53033L13.1893 12L15.4697 14.5303C15.7626 14.8232 15.7626 15.2981 15.4697 15.5909C15.1768 15.8838 14.7019 15.8838 14.409 15.5909L11.4697 12.6516C11.1768 12.3587 11.1768 11.8838 11.4697 11.5909L14.409 8.65158C14.7019 8.35869 15.1768 8.35869 15.4697 8.46967Z" fill="#877EFF"/>
<path fill-rule="evenodd" clip-rule="evenodd" d="M4.00001 1.75H20C21.2426 1.75 22.25 2.75736 22.25 4V20C22.25 21.2426 21.2426 22.25 20 22.25H4.00001C2.75736 22.25 1.75 21.2426 1.75 20V4C1.75 2.75736 2.75736 1.75 4.00001 1.75ZM3.25 4V20C3.25 20.4142 3.58579 20.75 4.00001 20.75H20C20.4142 20.75 20.75 20.4142 20.75 20V4C20.75 3.58579 20.4142 3.25 20 3.25H4.00001C3.58579 3.25 3.25 3.58579 3.25 4Z" fill="#877EFF"/>
</svg>
