<svg width="24" height="24" viewBox="0 0 24 24" fill="none" xmlns="http://www.w3.org/2000/svg">
<path d="M8.53033 9.46967C8.23744 9.17678 8.23744 8.70191 8.53033 8.40902C8.82322 8.11612 9.2981 8.11612 9.59099 8.40902L12.5303 11.3483C12.8232 11.6412 12.8232 12.1161 12.5303 12.409L9.59099 15.3483C9.2981 15.6412 8.82322 15.6412 8.53033 15.3483C8.23744 15.0554 8.23744 14.5806 8.53033 14.2877L10.8107 12L8.53033 9.46967Z" fill="#877EFF"/>
<path fill-rule="evenodd" clip-rule="evenodd" d="M4.00001 1.75H20C21.2426 1.75 22.25 2.75736 22.25 4V20C22.25 21.2426 21.2426 22.25 20 22.25H4.00001C2.75736 22.25 1.75 21.2426 1.75 20V4C1.75 2.75736 2.75736 1.75 4.00001 1.75ZM3.25 4V20C3.25 20.4142 3.58579 20.75 4.00001 20.75H20C20.4142 20.75 20.75 20.4142 20.75 20V4C20.75 3.58579 20.4142 3.25 20 3.25H4.00001C3.58579 3.25 3.25 3.58579 3.25 4Z" fill="#877EFF"/>
</svg>
