<svg width="24" height="24" viewBox="0 0 24 24" fill="none" xmlns="http://www.w3.org/2000/svg"> 
  <rect x="2" y="4" width="20" height="16" rx="3" fill="none" stroke="#877EFF" stroke-width="1.5"/> 
  <path d="M7 4V2.75C7 2.33579 7.33579 2 7.75 2H9.25C9.66421 2 10 2.33579 10 2.75V4H14V2.75C14 2.33579 14.3358 2 14.75 2H16.25C16.6642 2 17 2.33579 17 2.75V4H7Z" fill="#877EFF"/> 
  <path d="M16 11.134L11.741 8.921C11.1898 8.62584 10.5 9.03065 10.5 9.658V14.342C10.5 14.9693 11.1898 15.3742 11.741 15.079L16 12.866C16.5267 12.5851 16.5267 11.4149 16 11.134Z" fill="#877EFF"/> 
</svg>
