<svg width="24" height="24" viewBox="0 0 24 24" fill="none" xmlns="http://www.w3.org/2000/svg"> 
  <path d="M12 2C12.4142 2 12.75 2.33579 12.75 2.75V3.5C13.5774 3.68117 14.359 4.00599 15.05 4.45L15.65 3.85C15.9643 3.53571 16.4643 3.53571 16.7786 3.85L19.15 6.22143C19.4643 6.53571 19.4643 7.03571 19.15 7.35L18.55 7.95C18.994 8.641 19.3188 9.42256 19.5 10.25H20.25C20.6642 10.25 21 10.5858 21 11C21 11.4142 20.6642 11.75 20.25 11.75H19.5C19.3188 12.5774 18.994 13.359 18.55 14.05L19.15 14.65C19.4643 14.9643 19.4643 15.4643 19.15 15.7786L16.7786 18.15C16.4643 18.4643 15.9643 18.4643 15.65 18.15L15.05 17.55C14.359 17.994 13.5774 18.3188 12.75 18.5V19.25C12.75 19.6642 12.4142 20 12 20C11.5858 20 11.25 19.6642 11.25 19.25V18.5C10.4226 18.3188 9.64104 17.994 8.95 17.55L8.35 18.15C8.03571 18.4643 7.53571 18.4643 7.22143 18.15L4.85 15.7786C4.53571 15.4643 4.53571 14.9643 4.85 14.65L5.45 14.05C5.00602 13.359 4.68121 12.5774 4.5 11.75H3.75C3.33579 11.75 3 11.4142 3 11C3 10.5858 3.33579 10.25 3.75 10.25H4.5C4.68121 9.42256 5.00602 8.641 5.45 7.95L4.85 7.35C4.53571 7.03571 4.53571 6.53571 4.85 6.22143L7.22143 3.85C7.53571 3.53571 8.03571 3.53571 8.35 3.85L8.95 4.45C9.64104 4.00599 10.4226 3.68117 11.25 3.5V2.75C11.25 2.33579 11.5858 2 12 2ZM12 14C13.6569 14 15 12.6569 15 11C15 9.34315 13.6569 8 12 8C10.3431 8 9 9.34315 9 11C9 12.6569 10.3431 14 12 14Z" fill="none" stroke="#877EFF" stroke-width="1.5"/>
</svg>
